<svg width="323" height="123" viewBox="0 0 323 123" fill="none" xmlns="http://www.w3.org/2000/svg">
<path d="M14.8 19.6C16.56 18.4 18.64 17.44 20.96 16.8C23.2 16.16 25.52 15.84 27.84 15.84C29.84 15.84 30.88 16 30.88 16L30.8 20.96L26.24 21.04C24.56 21.04 22.88 21.28 21.12 21.76C19.36 22.24 17.84 22.96 16.4 23.76V46.4H24.24V51.36H3.44V46.4H10.16V23.52L2.48 20.88L4.16 15.92L14.8 19.6ZM53.3763 15.84C56.8963 15.84 60.0163 16.64 62.6563 18.08C65.2963 19.52 67.3763 21.68 68.8963 24.4C70.3363 27.12 71.1363 30.4 71.1363 34.24C71.1363 40 69.4563 44.48 66.2563 47.68C62.9763 50.96 58.6563 52.56 53.3763 52.56C49.9363 52.56 46.8963 51.84 44.2563 50.4C41.6163 48.96 39.5363 46.8 38.0963 44.08C36.6563 41.36 35.9363 38.08 35.9363 34.24C35.9363 30.4 36.6563 27.12 38.0963 24.4C39.5363 21.68 41.6163 19.52 44.2563 18.08C46.8963 16.64 49.9363 15.84 53.3763 15.84ZM53.4563 20.96C49.7763 20.96 46.9763 22.16 45.1363 24.48C43.2162 26.8 42.3363 30.08 42.3363 34.24C42.3363 38.48 43.2162 41.76 45.1363 44C46.9763 46.32 49.7763 47.44 53.4563 47.44C57.2163 47.44 60.0163 46.32 61.9363 44C63.7763 41.76 64.7363 38.48 64.7363 34.24C64.7363 30.08 63.7763 26.8 61.9363 24.48C60.0163 22.16 57.2163 20.96 53.4563 20.96ZM76.1725 51.36V46.4H82.8925V23.44L75.2125 20.8L76.8925 15.84L87.5325 19.52C89.3725 18.32 91.3725 17.44 93.4525 16.8C95.5325 16.16 97.6125 15.84 99.6925 15.84C102.253 15.84 104.573 16.4 106.733 17.36C108.893 18.32 110.653 19.84 111.933 21.84C113.212 23.84 113.932 26.32 113.932 29.36V46.4H120.653V51.36H104.093V46.4H107.693V30.64C107.693 27.28 106.813 24.8 105.053 23.28C103.293 21.76 101.213 20.96 98.6525 20.96C97.1325 20.96 95.5325 21.2 93.9325 21.68C92.3325 22.16 90.7325 22.8 89.1325 23.68V46.4H92.7325V51.36H76.1725ZM125.38 17.04H138.34V46.4H144.98V51.36H125.38V46.4H132.02V22H125.38V17.04ZM134.34 -1.62125e-05C135.78 -1.62125e-05 136.98 0.479982 137.94 1.35999C138.82 2.31998 139.3 3.51998 139.3 4.95998C139.3 6.47998 138.82 7.67999 137.94 8.55998C136.98 9.51999 135.78 9.91998 134.34 9.91998C132.82 9.91998 131.62 9.51999 130.74 8.55998C129.86 7.67999 129.46 6.47998 129.46 4.95998C129.46 3.51998 129.86 2.31998 130.74 1.35999C131.62 0.479982 132.82 -1.62125e-05 134.34 -1.62125e-05Z" fill="#6B6B6B"/>
<path d="M3.36 104.36L3.28 99.4H10V76.44L2.32 73.8L4 68.84L14.56 72.52C16.08 71.4 17.84 70.52 19.76 69.88C21.68 69.24 23.6 68.84 25.36 68.84C28.08 68.84 30.4 69.24 32.32 69.88C34.24 70.6 35.76 71.64 36.88 73C38.24 71.8 40 70.84 42.08 70.04C44.24 69.24 46.32 68.84 48.24 68.84C53.12 68.84 56.64 69.96 58.8 72.04C60.96 74.2 62 77.64 62 82.36V99.4H68.72V104.36H52.16V99.4H55.76V83.64C55.76 80.12 55.2 77.64 54 76.2C52.8 74.76 50.72 73.96 47.84 73.96C46.16 73.96 44.48 74.28 42.88 74.76C41.28 75.24 40 75.88 39.12 76.68V99.4H42.72V104.36H29.28V99.4H32.88V83.64C32.88 80.12 32.32 77.64 31.12 76.2C29.92 74.76 27.84 73.96 24.96 73.96C23.28 73.96 21.6 74.28 20 74.76C18.4 75.24 17.12 75.88 16.32 76.68V99.4H19.92V104.36H3.36ZM98.545 102.04C95.025 104.44 91.265 105.64 87.265 105.64C82.785 105.64 79.345 104.68 77.025 102.92C74.705 101.08 73.505 98.44 73.505 95C73.345 87.96 77.825 84.52 86.785 84.52L97.105 84.6C97.105 81 96.385 78.36 95.105 76.6C93.745 74.84 91.745 74.04 89.025 74.04C87.745 74.04 86.465 74.12 85.265 74.28C83.985 74.44 82.865 74.68 81.825 75L81.025 79.4L75.905 78.44L77.185 71.16C79.185 70.36 81.185 69.8 83.105 69.48C85.025 69.08 86.945 68.92 88.785 68.92C93.585 68.92 97.185 70.2 99.665 72.76C102.065 75.32 103.345 79.16 103.345 84.2V98.12L110.945 100.6L109.345 105.72L98.545 102.04ZM87.025 89.56C84.705 89.56 82.945 89.96 81.745 90.92C80.465 91.8 79.905 93.16 79.905 94.92C79.905 98.6 82.465 100.52 87.585 100.52C91.265 100.52 94.385 99.48 97.105 97.48V89.64L87.025 89.56ZM125.034 72.6C126.794 71.4 128.874 70.44 131.194 69.8C133.434 69.16 135.754 68.84 138.074 68.84C140.074 68.84 141.114 69 141.114 69L141.034 73.96L136.474 74.04C134.794 74.04 133.114 74.28 131.354 74.76C129.594 75.24 128.074 75.96 126.634 76.76V99.4H134.474V104.36H113.674V99.4H120.394V76.52L112.714 73.88L114.394 68.92L125.034 72.6ZM161.992 94.92C157.112 94.92 153.272 93.8 150.472 91.56C147.672 89.32 146.232 86.12 146.232 82.12C146.232 78.04 147.672 74.84 150.472 72.44C153.352 70.04 157.192 68.84 161.992 68.84C164.072 68.84 165.832 69.08 167.432 69.4C169.032 69.8 170.472 70.36 171.832 71.08L183.192 66.84L185.032 72.12L175.592 74.28C176.392 75.32 176.952 76.44 177.352 77.64C177.752 78.92 177.992 80.28 177.992 81.72C177.992 84.44 177.272 86.76 175.992 88.76C174.712 90.76 172.872 92.28 170.472 93.32C168.072 94.44 165.192 94.92 161.992 94.92ZM162.552 122.2C160.872 122.2 158.872 122.04 156.632 121.72C154.312 121.32 152.152 120.84 150.072 120.2C147.992 119.56 146.472 119 145.512 118.36L147.752 113.64C149.672 114.68 151.992 115.48 154.872 116.04C157.672 116.68 160.232 116.92 162.632 116.92C164.872 116.92 166.872 116.76 168.472 116.44C170.072 116.12 171.272 115.56 172.152 114.84C173.032 114.12 173.512 113.16 173.512 112.04C173.512 110.36 172.792 109.16 171.352 108.36C169.912 107.56 167.832 107.16 165.192 107.16H153.752V91.4L159.832 93.4V102.2H166.872C171.112 102.2 174.312 103 176.472 104.52C178.552 106.12 179.672 108.44 179.672 111.48C179.672 113.72 178.952 115.64 177.592 117.24C176.232 118.84 174.312 120.12 171.752 120.92C169.192 121.8 166.152 122.2 162.552 122.2ZM162.152 89.88C165.032 89.88 167.352 89.08 169.112 87.64C170.792 86.12 171.672 84.2 171.672 81.88C171.672 79.4 170.872 77.48 169.272 76.12C167.672 74.68 165.272 74.04 162.152 74.04C158.952 74.04 156.632 74.68 155.032 76.12C153.432 77.48 152.632 79.4 152.632 81.88C152.632 84.2 153.432 86.12 155.192 87.64C156.872 89.08 159.192 89.88 162.152 89.88ZM204.079 68.84C207.599 68.84 210.719 69.64 213.359 71.08C215.999 72.52 218.079 74.68 219.599 77.4C221.039 80.12 221.839 83.4 221.839 87.24C221.839 93 220.159 97.48 216.959 100.68C213.679 103.96 209.359 105.56 204.079 105.56C200.639 105.56 197.599 104.84 194.959 103.4C192.319 101.96 190.239 99.8 188.799 97.08C187.359 94.36 186.639 91.08 186.639 87.24C186.639 83.4 187.359 80.12 188.799 77.4C190.239 74.68 192.319 72.52 194.959 71.08C197.599 69.64 200.639 68.84 204.079 68.84ZM204.159 73.96C200.479 73.96 197.679 75.16 195.839 77.48C193.919 79.8 193.039 83.08 193.039 87.24C193.039 91.48 193.919 94.76 195.839 97C197.679 99.32 200.479 100.44 204.159 100.44C207.919 100.44 210.719 99.32 212.639 97C214.479 94.76 215.439 91.48 215.439 87.24C215.439 83.08 214.479 79.8 212.639 77.48C210.719 75.16 207.919 73.96 204.159 73.96ZM226.918 104.36V99.4H233.638V59.08L225.638 57.32L226.998 52.2L239.878 55.16V99.4H246.598V104.36H226.918ZM251.318 70.04H264.278V99.4H270.918V104.36H251.318V99.4H257.958V75H251.318V70.04ZM260.278 53C261.718 53 262.918 53.48 263.878 54.36C264.758 55.32 265.238 56.52 265.238 57.96C265.238 59.48 264.758 60.68 263.878 61.56C262.918 62.52 261.718 62.92 260.278 62.92C258.758 62.92 257.558 62.52 256.678 61.56C255.798 60.68 255.398 59.48 255.398 57.96C255.398 56.52 255.798 55.32 256.678 54.36C257.558 53.48 258.758 53 260.278 53ZM276.094 104.36V99.4H282.814V76.44L275.134 73.8L276.814 68.84L287.454 72.52C289.294 71.32 291.294 70.44 293.374 69.8C295.454 69.16 297.534 68.84 299.614 68.84C302.174 68.84 304.494 69.4 306.654 70.36C308.814 71.32 310.574 72.84 311.854 74.84C313.134 76.84 313.854 79.32 313.854 82.36V99.4H320.574V104.36H304.014V99.4H307.614V83.64C307.614 80.28 306.734 77.8 304.974 76.28C303.214 74.76 301.134 73.96 298.574 73.96C297.054 73.96 295.454 74.2 293.854 74.68C292.254 75.16 290.654 75.8 289.054 76.68V99.4H292.654V104.36H276.094Z" fill="#F5F3EF"/>
</svg>
