<svg width="173" height="30" viewBox="0 0 173 30" fill="none" xmlns="http://www.w3.org/2000/svg">
<g clip-path="url(#clip0_932_2153)">
<path d="M6.10967 0.325439H3.59417L0 29.6748H1.98441L2.56491 24.6861H6.88367L7.46418 29.6748H9.51446L6.10967 0.325439ZM2.80781 22.5573L2.83252 22.3324C3.13306 19.7778 3.42949 17.2514 3.71768 14.7611C4.00587 12.2949 4.29406 9.71224 4.57402 7.08136L4.77987 5.14938L4.96926 7.08538C5.22863 9.70822 5.49624 12.2949 5.77619 14.7651C6.05615 17.2594 6.33611 19.7859 6.61607 22.3404L6.64077 22.5613H2.80781V22.5573Z" fill="#1A1A1A"/>
<path d="M16.7355 27.6905C15.8668 27.6905 14.8293 27.2487 14.8293 25.14V0.325439H12.7749V25.14C12.7749 28.4095 14.0718 30.0001 16.7355 30.0001C19.3992 30.0001 20.6961 28.4095 20.6961 25.14V0.325439H18.6417V25.14C18.6417 27.2487 17.6042 27.6905 16.7355 27.6905V27.6905Z" fill="#1A1A1A"/>
<path d="M31.627 0.325439H24.9985V29.6748H31.7875V27.3652H27.0488V15.9018H30.2724V13.5561H27.0488V2.70728H31.627V0.325439Z" fill="#1A1A1A"/>
<path d="M43.2577 22.7741C42.8954 20.4806 42.5043 18.143 42.0802 15.7692C43.3729 15.0341 44.0193 13.5922 44.0193 11.4553V5.60716C44.0193 3.68321 43.6447 2.32158 42.8913 1.52228C42.1378 0.726989 40.9974 0.329346 39.4741 0.329346H35.4971V29.6746H37.9138V16.3757H39.5029C39.5894 16.3757 39.6841 16.3636 39.7911 16.3395C40.1493 18.5728 40.4787 20.7779 40.7792 22.9549C41.0756 25.1278 41.3638 27.3691 41.6397 29.6746H44.2787C43.9617 27.3691 43.62 25.0716 43.2618 22.7741H43.2577ZM41.7673 11.4875C41.7673 12.3631 41.5903 13.0218 41.2444 13.4476C40.8904 13.8854 40.3016 14.1103 39.5029 14.1103H37.7161V2.87587H39.47C40.384 2.87587 41.0057 3.12088 41.3186 3.60689C41.6191 4.07282 41.7632 4.84401 41.7632 5.96062V11.4875H41.7673Z" fill="#1A1A1A"/>
<path d="M55.4689 15.5202C55.1107 15.0664 54.6949 14.7772 54.2255 14.6687L53.5092 14.5L54.2091 14.2791C55.2013 13.9698 55.683 12.9536 55.683 11.1823V5.22168C55.683 3.46642 55.3948 2.19718 54.8225 1.43804C54.2626 0.698983 53.2951 0.325439 51.9488 0.325439H47.9224V29.6748H51.9488C53.3033 29.6748 54.3243 29.2972 54.9913 28.5501C55.6624 27.795 56.0041 26.5538 56.0041 24.8508V17.7655C56.0041 16.7333 55.8229 15.9781 55.4648 15.5243L55.4689 15.5202ZM49.9768 2.70327H51.9488C52.6158 2.70327 53.0975 2.90008 53.3815 3.28969C53.6574 3.66725 53.7932 4.28581 53.7932 5.18151V11.4354C53.7932 12.1865 53.6574 12.7247 53.3774 13.0782C53.0934 13.4396 52.6199 13.6244 51.9818 13.6244H49.9768V2.70728V2.70327ZM53.8879 24.8468C53.8879 26.9234 52.834 27.3612 51.9488 27.3612H49.9768V15.6448H51.9818C52.7393 15.6448 53.258 15.8657 53.5215 16.2995C53.7685 16.7092 53.8879 17.3398 53.8879 18.2315V24.8468V24.8468Z" fill="#1A1A1A"/>
<path d="M75.6173 0C72.9083 0 71.5908 1.61467 71.5908 4.93239V25.1761C71.5908 28.4215 72.9083 30 75.6173 30C76.8977 30 77.8364 29.6064 78.4086 28.8352C78.9932 28.0439 79.2897 26.7867 79.2897 25.1038V19.1592H77.4617V25.1399C77.4617 25.9834 77.33 26.5979 77.0582 27.0197C76.7742 27.4655 76.2884 27.6905 75.6173 27.6905C74.7321 27.6905 73.6782 27.2486 73.6782 25.1399V4.89624C73.6782 2.81965 74.7321 2.38184 75.6173 2.38184C76.3089 2.38184 76.7989 2.60276 77.0747 3.03253C77.3341 3.44624 77.4617 4.05275 77.4617 4.89222V9.93306H79.2897V4.86009C79.2897 1.59057 78.0875 0 75.6214 0H75.6173Z" fill="#1A1A1A"/>
<path d="M89.2327 13.5923H85.4162V0.325439H83.3618V29.6748H85.4162V15.9018H89.2327V29.6748H91.283V0.325439H89.2327V13.5923Z" fill="#1A1A1A"/>
<path d="M111.728 13.5923H107.911V0.325439H105.857V29.6748H107.911V15.9018H111.728V29.6748H113.778V0.325439H111.728V13.5923Z" fill="#1A1A1A"/>
<path d="M123.507 0.325439H120.991L117.397 29.6748H119.381L119.962 24.6861H124.281L124.861 29.6748H126.911L123.507 0.325439ZM120.205 22.5573L120.229 22.3324C120.53 19.7778 120.826 17.2514 121.115 14.7611C121.399 12.3029 121.687 9.71625 121.967 7.08136L122.173 5.14938L122.362 7.08136C122.621 9.71224 122.893 12.2949 123.169 14.7611C123.449 17.2554 123.729 19.7819 124.009 22.3364L124.034 22.5573H120.201H120.205Z" fill="#1A1A1A"/>
<path d="M65.5145 0.325439H62.999L59.4048 29.6748H61.3892L61.9697 24.6861H66.2885L66.869 29.6748H68.9192L65.5145 0.325439ZM62.2126 22.5573L62.2373 22.3324C62.5378 19.7778 62.8343 17.2514 63.1225 14.7611C63.4065 12.3029 63.6947 9.71625 63.9747 7.08136L64.1805 5.14938L64.3699 7.08136C64.6293 9.71224 64.901 12.2949 65.1769 14.7611C65.4568 17.2554 65.7368 19.7819 66.0126 22.3364L66.0373 22.5573H62.2044H62.2126Z" fill="#1A1A1A"/>
<path d="M137.385 27.3652H132.643V0.325439H130.592V29.6748H137.385V27.3652Z" fill="#1A1A1A"/>
<path d="M147.542 0.325439H140.91V29.6748H147.703V27.3652H142.964V15.9018H146.188V13.5561H142.964V2.70728H147.542V0.325439Z" fill="#1A1A1A"/>
<path d="M154.315 14.3513C154.142 12.6643 153.977 10.9693 153.816 9.27028C153.656 7.57126 153.495 5.93248 153.335 4.35396C153.178 2.85175 153.042 1.50619 152.919 0.321289H150.774L154.018 29.6706H156.954L160.416 0.325306H158.366C158.226 1.4861 158.069 2.84372 157.905 4.35797C157.732 5.9365 157.555 7.57527 157.374 9.2743L156.826 14.3553C156.645 16.0342 156.48 17.6168 156.344 19.0507C156.204 20.4967 156.081 21.7579 155.974 22.8303C155.867 23.9028 155.793 24.678 155.747 25.16H155.352C155.307 24.7021 155.241 23.9309 155.142 22.8464C155.047 21.7619 154.928 20.4967 154.788 19.0507C154.648 17.6047 154.492 16.0383 154.319 14.3513H154.315Z" fill="#1A1A1A"/>
<path d="M167.44 10.1579C167.246 9.18191 167.028 8.11751 166.781 6.96073C166.534 5.80395 166.287 4.62709 166.04 3.43416C165.805 2.30549 165.587 1.26921 165.381 0.321289H163.211L166.9 16.5323V29.6706H168.984V16.4881L172.8 0.325306H170.824C170.597 1.27322 170.359 2.30951 170.103 3.44219C169.836 4.63512 169.576 5.80797 169.329 6.96475C169.082 8.12153 168.86 9.18593 168.666 10.162C168.469 11.1541 168.333 11.8891 168.247 12.4153L168.053 13.6283L167.855 12.4153C167.769 11.8811 167.629 11.1259 167.436 10.162L167.44 10.1579Z" fill="#1A1A1A"/>
</g>
<defs>
<clipPath id="clip0_932_2153">
<rect width="172.8" height="30" fill="white"/>
</clipPath>
</defs>
</svg>
