<svg width="155" height="34" viewBox="0 0 155 34" fill="none" xmlns="http://www.w3.org/2000/svg">
<path d="M81.2904 0.635742V17.1112C81.2904 20.0676 80.5426 22.3521 79.0677 23.9017C77.5979 25.4449 75.5785 26.2287 73.0649 26.2287C70.8293 26.2287 69.0918 25.5684 67.9 24.2647C66.6966 22.9519 66.0865 20.9042 66.0865 18.1808V0.635742H57.7773V19.1898C57.7773 23.9249 59.0515 27.5582 61.5638 29.9895C64.0723 32.4168 67.5422 33.6472 71.877 33.6472C73.9864 33.6472 75.9839 33.2457 77.8128 32.4529C79.2788 31.8171 80.5632 30.9573 81.6469 29.8878V33.2315H89.5996V0.63703H81.2904V0.635742Z" fill="black"/>
<path d="M103.697 26.405L120.654 5.92937V0.635742H93.2257V7.45967H109.769L92.8691 27.9366V33.2302H121.129V26.405H103.697Z" fill="black"/>
<path d="M152.219 8.31691C150.818 5.78014 148.843 3.78522 146.347 2.38491C143.857 0.988466 140.997 0.279297 137.847 0.279297C134.698 0.279297 131.749 0.997472 129.2 2.41322C126.645 3.83413 124.619 5.83806 123.18 8.37097C121.743 10.9013 121.014 13.7817 121.014 16.9324C121.014 20.0831 121.763 23.0292 123.242 25.5582C124.722 28.0937 126.85 30.0989 129.565 31.5172C132.267 32.9304 135.433 33.646 138.975 33.646C141.751 33.646 144.283 33.1956 146.503 32.3075C148.738 31.413 150.615 30.0719 152.082 28.3202L152.325 28.0293L147.783 22.8104L147.448 23.1527C145.288 25.3497 142.498 26.4643 139.154 26.4643C136.532 26.4643 134.315 25.804 132.56 24.5028C130.96 23.3162 129.909 21.719 129.43 19.7511H154.17L154.203 19.3443C154.284 18.3688 154.323 17.639 154.323 17.11C154.323 13.8036 153.615 10.8447 152.219 8.31563V8.31691ZM132.107 9.10588C133.659 7.77764 135.591 7.10452 137.846 7.10452C140.101 7.10452 142.078 7.78665 143.61 9.13162C145.021 10.3723 145.922 11.9863 146.29 13.9362H129.349C129.749 11.9528 130.676 10.3299 132.107 9.10588Z" fill="black"/>
<path d="M0.0270308 29.337C0.0772257 31.6421 1.16478 34.0115 4.16746 34C6.40564 33.9909 8.10712 33.6473 10.1857 30.5906C10.4972 30.1079 21.6559 11.6362 21.6559 11.6362L21.5568 11.5371L23.6907 28.8067L23.7177 29.0422C23.9378 30.7862 24.1849 32.2238 25.9314 33.175C27.4489 34.0012 31.4542 34.4079 33.8185 31.0886L45.7044 11.8511L46.1188 33.2496L54.2311 33.2432V5.23057C54.2311 2.15452 52.2091 0 49.1138 0C45.7571 0 43.5074 1.63455 40.9384 5.36056L30.6408 20.6301L30.5417 20.827C30.5108 20.4602 29.2263 5.14305 29.2263 5.14305C29.0435 2.70924 27.7192 0 24.535 0H24.4848C20.9055 0 18.7523 2.94219 17.6197 4.63209C16.5965 6.15981 9.76226 16.4343 8.41472 18.3752V17.7844L8.91538 0.638379L8.15731 0.664121L0 0.634514V28.7552" fill="black"/>
</svg>
