<svg width="148" height="40" viewBox="0 0 148 40" fill="none" xmlns="http://www.w3.org/2000/svg">
<path d="M147.111 16.5866V10.7036H140.167V3.99976H133.862C133.862 6.1614 131.544 10.5668 128.021 11.6613C127.974 11.6795 128.021 11.7069 128.021 11.7069V16.6048H132.082V33.1683C132.082 34.6277 132.332 35.8043 132.823 36.6981C133.315 37.5919 133.982 38.2851 134.817 38.7685C135.688 39.2519 136.68 39.5712 137.774 39.7171C138.915 39.8995 140.111 39.9999 141.363 39.9999C142.16 39.9999 142.976 39.9816 143.81 39.9451C144.645 39.9086 145.405 39.8357 146.091 39.7171V33.5605C145.711 33.6335 145.312 33.6882 144.895 33.7247C144.478 33.7612 144.042 33.7794 143.588 33.7794C142.225 33.7794 141.307 33.5514 140.853 33.1045C140.398 32.6576 140.167 31.7637 140.167 30.4138V16.5866H147.111Z" fill="black"/>
<rect x="56.8887" y="0.444336" width="8.00002" height="39.1112" fill="black"/>
<path d="M17.058 30.5442L11.9425 24.4446L1.3335 39.1113H11.9425L17.27 31.7826L23.0769 39.1113H33.778L27.5195 30.5442H17.058Z" fill="black"/>
<path d="M17.6578 18.4305L22.6491 24.4443L32.889 10.6845H22.4101L17.5016 17.165L12.7309 10.6665H0L6.23218 18.4305H17.6578Z" fill="black"/>
<path fill-rule="evenodd" clip-rule="evenodd" d="M92.9454 13.1255C94.211 14.4419 95.1831 16.055 95.8618 17.974C96.5496 19.8559 96.889 21.951 96.889 24.2779C96.889 26.5955 96.5496 28.6999 95.8618 30.5818C95.174 32.4545 94.2018 34.0768 92.9454 35.4303C91.6798 36.7467 90.1482 37.7665 88.3507 38.4803C86.5806 39.2034 84.6089 39.5557 82.417 39.5557C80.2251 39.5557 78.2441 39.1941 76.4833 38.4803C74.7132 37.7665 73.2092 36.7467 71.9436 35.4303C70.678 34.0768 69.7058 32.4637 69.0272 30.5818C68.3393 28.6999 68 26.6048 68 24.2779C68 21.9603 68.3393 19.8559 69.0272 17.974C69.715 16.0643 70.678 14.4419 71.9436 13.1255C73.2092 11.772 74.7224 10.7337 76.4833 10.0199C78.2533 9.25974 80.2251 8.88892 82.417 8.88892C84.6089 8.88892 86.5898 9.26901 88.3507 10.0199C90.1574 10.7337 91.6798 11.772 92.9454 13.1255ZM85.5717 32.6031C86.443 32.0932 87.1217 31.4165 87.6077 30.5821C88.1396 29.7014 88.5065 28.728 88.6991 27.6619C88.91 26.5495 89.0201 25.4277 89.0201 24.2782C89.0201 23.1287 88.91 22.0069 88.6991 20.8945C88.4882 19.7913 88.1121 18.8179 87.5894 17.9743C87.1033 17.1399 86.4247 16.4632 85.5534 15.9533C84.728 15.4156 83.6825 15.1375 82.4169 15.1375C81.1513 15.1375 80.1149 15.4156 79.2804 15.9533C78.4366 16.4632 77.758 17.1307 77.2352 17.9743C76.74 18.8179 76.3915 19.7913 76.1805 20.8945C75.9696 22.0069 75.8595 23.1287 75.8595 24.2782C75.8595 25.4277 75.9696 26.5495 76.1805 27.6619C76.3915 28.728 76.74 29.7014 77.2352 30.5821C77.758 31.4165 78.4458 32.0932 79.2804 32.6031C80.1149 33.1037 81.1604 33.3633 82.4261 33.3633C83.6917 33.3633 84.7372 33.113 85.5717 32.6031Z" fill="black"/>
<path d="M48.9509 0.0204888C45.6335 0.0204888 43.2319 0.739646 41.5966 2.39002C39.9519 4.04961 39.1389 6.1702 39.1389 8.77023V10.5312H35.1113V16.3859H39.1389V39.5557H47.2689V16.3859H52.8757V10.5681H47.2689V9.27733C47.2689 8.06951 47.5025 7.2305 47.951 6.74184C48.4463 6.2163 49.2499 5.94892 50.3526 5.94892C51.3805 5.94892 52.3711 6.00424 53.3336 6.11488V0.204888C52.5019 0.0665886 52.2216 0.0665886 51.2123 0.0204888C50.2125 -0.025611 49.6798 0.0204888 48.9509 0.0204888Z" fill="black"/>
<path fill-rule="evenodd" clip-rule="evenodd" d="M114.532 8.91677C117.383 8.98176 119.919 9.71524 121.844 11.0429C123.964 12.5006 125.25 14.636 125.547 17.2078C125.639 17.9785 125.778 19.9375 125.778 20.2532V39.0914H118.049V34.5884C116.448 37.6059 112.931 39.5557 109.08 39.5557H108.988C106.239 39.5557 103.739 38.6643 101.944 37.0581C100.12 35.4241 99.1113 33.1122 99.1113 30.5497C99.1113 27.8386 100.12 25.5918 102.036 24.032C104.017 22.4257 106.97 21.5716 110.57 21.5716H117.938V20.5317C117.929 20.476 117.929 20.4203 117.929 20.3461V20.346V20.2532C117.92 20.0976 117.912 19.8292 117.896 19.3283L117.892 19.2133C117.864 18.3777 117.688 17.5235 117.448 17.05C117.142 16.4558 116.827 16.0751 116.365 15.7502C115.927 15.4366 115.412 15.296 114.919 15.1614C114.901 15.1565 114.883 15.1516 114.865 15.1467L114.791 15.1281C114.467 15.0445 113.616 14.9424 112.931 14.9424C111.44 14.9517 110.246 15.3231 109.395 16.0566C108.71 16.6415 108.414 17.2264 108.016 18.7584L108.006 18.7955H100.731V18.7491V18.6562C100.74 17.7371 100.963 16.2608 101.518 14.8774C101.685 14.4689 102.018 13.819 102.221 13.5219C103.878 10.783 106.794 9.33457 111.394 8.98176C112.033 8.91677 112.69 8.88892 113.329 8.88892C113.727 8.88892 114.134 8.8982 114.532 8.91677ZM111.811 26.4924C108.784 26.511 107.247 27.7272 107.247 30.1041C107.247 32.2395 108.978 33.6229 111.672 33.6415C113.347 33.6322 114.911 33.0844 116.068 32.1095C117.263 31.1068 117.92 29.7141 117.92 28.21V26.5481L111.811 26.4924Z" fill="black"/>
</svg>
